<?xml version="1.0" encoding="utf-8"?>
<!-- Generator: Adobe Illustrator 19.2.1, SVG Export Plug-In . SVG Version: 6.00 Build 0)  -->
<svg version="1.1" id="Layer_1" xmlns="http://www.w3.org/2000/svg" xmlns:xlink="http://www.w3.org/1999/xlink" x="0px" y="0px"
	 viewBox="0 0 1200 800" style="enable-background:new 0 0 1200 800;" xml:space="preserve">
<style type="text/css">
	.st0{fill:#DCDBDB;}
	.st1{fill:none;stroke:#8EA3AE;stroke-width:26;}
	.st2{fill:#BCBCBC;}
	.st3{fill:#A5D5A1;}
	.st4{fill:#636363;}
</style>
<path class="st0" d="M165.5,628h101.6V226.6H165.5V628z"/>
<path class="st0" d="M1200,119.9H0V0h1200V119.9z"/>
<path class="st1" d="M1200,13.9H0"/>
<path class="st2" d="M1055.9,630.6H912.8V196.7h143.1V630.6z"/>
<path class="st0" d="M1200,630.6h-127V208h127V630.6z"/>
<path class="st2" d="M1201.1,208H-0.8v-67.4h1202V208z"/>
<path class="st2" d="M149.3,628H-3.9V208h153.1V628z"/>
<path class="st2" d="M1200,723.1H-0.2v-80.8H1200V723.1z"/>
<path class="st0" d="M1200,800H-0.3v-59H1200V800z"/>
<circle class="st3" cx="268.1" cy="28.1" r="23.8"/>
<g>
	<path class="st4" d="M608.2,776.4v-14.8c0-2-1.6-3.6-3.6-3.6h-4.4v-2h4v-2h-12v2h4v2h-4.4c-2,0-3.6,1.6-3.6,3.6v14.8
		c0,2,1.6,3.6,3.6,3.6h0.4l-1.4,2h-2.6v2h1.4l-1.4,2h4l1.2-2h9.8l1.2,2h4l-1.4-2h1.2v-2h-2.6l-1.4-2h0.4
		C606.6,780,608.2,778.4,608.2,776.4z M590.2,761.8c0-1,0.8-1.8,1.8-1.8h12.2c1.2,0,2,0.8,2,1.8v4.2c0,1.2-0.8,2-1.8,2H592
		c-1,0-1.8-0.8-1.8-1.8V761.8z M590.2,776c0-1.2,0.8-2,2-2s2,0.8,2,2s-0.8,2-2,2S590.2,777.2,590.2,776z M602,782h-7.6l1.2-2h5.2
		L602,782z M602.2,776c0-1.2,0.8-2,2-2s2,0.8,2,2s-0.8,2-2,2S602.2,777.2,602.2,776z"/>
	<path class="st4" d="M227.3,547.8c-0.4,0-0.8,0.1-1.3,0.1l-3.3-7.3c-0.2-0.4-0.6-0.6-1-0.6h-2.1c-0.6,0-1.1,0.5-1.1,1.1
		s0.5,1.1,1.1,1.1h1.4l0.9,2h-9.2l-0.6-1.4h0.5c0.6,0,1.1-0.5,1.1-1.1s-0.5-1.1-1.1-1.1h-4c-0.6,0-1.1,0.5-1.1,1.1s0.5,1.1,1.1,1.1
		h1.1l1.1,2.3l-2.1,3.1c-0.7-0.3-1.4-0.4-2.2-0.4c-3.1,0-5.6,2.5-5.6,5.6s2.5,5.6,5.6,5.6c2.7,0,5-1.9,5.5-4.5h0.9
		c0.5,1.3,1.9,2.1,3.4,1.8c1.6-0.3,2.6-1.9,2.3-3.5c0-0.2-0.1-0.4-0.2-0.6l4.9-5l0.8,1.7c-1.4,1-2.3,2.7-2.3,4.5
		c0,3.1,2.5,5.6,5.6,5.6s5.6-2.5,5.6-5.6C232.9,550.3,230.4,547.8,227.3,547.8L227.3,547.8z M213.5,551.3c-0.3,0.3-0.5,0.6-0.6,1
		H212c-0.2-1.1-0.7-2.1-1.5-2.8l1.3-2L213.5,551.3L213.5,551.3z M209.2,551.4c0.2,0.3,0.4,0.6,0.5,0.9h-1.1L209.2,551.4z
		 M206.5,556.8c-1.9,0-3.4-1.5-3.4-3.4s1.5-3.4,3.4-3.4c0.3,0,0.6,0.1,0.9,0.1l-1.8,2.6c-0.2,0.3-0.3,0.8-0.1,1.1
		c0.2,0.4,0.6,0.6,1,0.6h3.2C209.2,555.8,208,556.8,206.5,556.8L206.5,556.8z M216.8,550.7c-0.4-0.2-0.8-0.2-1.3-0.2l-1.8-4h7.3
		C221,546.4,216.8,550.7,216.8,550.7z M227.3,556.8c-1.9,0-3.4-1.5-3.4-3.4c0-1,0.4-1.8,1.1-2.5l1.3,2.9c0.2,0.4,0.6,0.6,1,0.6
		c0.2,0,0.3,0,0.4-0.1c0.6-0.2,0.8-0.9,0.5-1.4l-1.3-2.9c0.1,0,0.2,0,0.3,0c1.9,0,3.4,1.5,3.4,3.4
		C230.7,555.3,229.2,556.8,227.3,556.8z"/>
	<g>
		<path class="st4" d="M205.8,373.3c0.2,0,0.3,0,0.6,0c1,0,1.8-0.2,2.4-0.8c0.4-0.4,0.7-1,0.7-1.7s-0.3-1.3-0.8-1.7
			c-0.5-0.4-1.2-0.6-2.2-0.6s-1.7,0.1-2.2,0.2v7.2h1.6L205.8,373.3L205.8,373.3z M205.8,369.9c0.1,0,0.3-0.1,0.7-0.1
			c0.8,0,1.3,0.4,1.3,1.1s-0.5,1.2-1.4,1.2c-0.2,0-0.4,0-0.6,0V369.9L205.8,369.9z"/>
		<path class="st4" d="M202.7,378.2h8.1c1,0,1.9-0.8,1.9-1.9v-8.1c0-1-0.8-1.9-1.9-1.9h-8.1c-1,0-1.9,0.8-1.9,1.9v8.1
			C200.9,377.4,201.7,378.2,202.7,378.2z M202.3,368.3c0-0.3,0.2-0.5,0.5-0.5h7.9c0.3,0,0.5,0.2,0.5,0.5v7.9c0,0.3-0.2,0.5-0.5,0.5
			h-7.9c-0.3,0-0.5-0.2-0.5-0.5C202.3,376.2,202.3,368.3,202.3,368.3z"/>
		<path class="st4" d="M208.4,388c-1.8,0-3.3,1.5-3.3,3.3s1.5,3.3,3.3,3.3s3.3-1.5,3.3-3.3C211.7,389.4,210.2,388,208.4,388z
			 M208.4,392.2c-0.5,0-1-0.4-1-1c0-0.5,0.4-1,1-1c0.5,0,1,0.4,1,1C209.4,391.8,209,392.2,208.4,392.2z"/>
		<path class="st4" d="M232.2,388.5l-0.5-4.3c-0.1-0.8-0.8-1.4-1.7-1.4l-1.2,0.1l-3.6-3.3c-0.3-0.3-0.8-0.5-1.3-0.5h-7.4
			c-1.7,0-3.3,0.6-4.5,1.6l-4.1,3.3l-5.5,1.4c-0.7,0.2-1.2,0.8-1.2,1.5v1.6c-0.2,0-0.4,0.2-0.4,0.4v2.1c0,0.3,0.2,0.5,0.5,0.5h3.1
			c0-0.1,0-0.3,0-0.4c0-2.3,1.8-4.1,4.1-4.1s4.1,1.8,4.1,4.1c0,0.1,0,0.3,0,0.4h8.6c0-0.1,0-0.3,0-0.4c0-2.3,1.8-4.1,4.1-4.1
			s4.1,1.8,4.1,4.1c0,0.1,0,0.3,0,0.4h2.9c0.3,0,0.5-0.2,0.5-0.5v-2C232.7,388.8,232.5,388.5,232.2,388.5L232.2,388.5z M221.2,383.2
			l-10.3,0.5l2-1.6c1.1-0.9,2.4-1.3,3.8-1.3h4.5C221.2,380.8,221.2,383.2,221.2,383.2z M222.9,383.1v-2.3h0.7c0.2,0,0.5,0.1,0.6,0.2
			l2.1,1.9C226.3,383,222.9,383.1,222.9,383.1z"/>
		<path class="st4" d="M225.2,388c-1.8,0-3.3,1.5-3.3,3.3s1.5,3.3,3.3,3.3s3.3-1.5,3.3-3.3C228.4,389.4,227,388,225.2,388z
			 M225.2,392.2c-0.5,0-1-0.4-1-1c0-0.5,0.4-1,1-1c0.5,0,1,0.4,1,1C226.2,391.8,225.7,392.2,225.2,392.2z"/>
	</g>
</g>
<path class="st0" d="M1200,685.2h-32.5v-4.9h32.5V685.2z"/>
<path class="st0" d="M1149,685.2h-32.5v-4.9h32.5V685.2z"/>
<path class="st0" d="M1098.7,685.2h-32.5v-4.9h32.5V685.2z"/>
<path class="st0" d="M1047.8,685.2h-32.5v-4.9h32.5V685.2z"/>
<path class="st0" d="M996.8,685.2h-32.5v-4.9h32.5V685.2z"/>
<path class="st0" d="M945.8,685.2h-32.5v-4.9h32.5V685.2z"/>
<path class="st0" d="M895.5,685.2h-32.5v-4.9h32.5V685.2z"/>
<path class="st0" d="M844.5,685.2h-32.5v-4.9h32.5V685.2z"/>
<path class="st0" d="M793.5,685.2h-32.5v-4.9h32.5V685.2z"/>
<path class="st0" d="M742.5,685.2h-32.5v-4.9h32.5V685.2z"/>
<path class="st0" d="M692.3,685.2h-32.5v-4.9h32.5V685.2z"/>
<path class="st0" d="M641.3,685.2h-32.5v-4.9h32.5V685.2z"/>
<path class="st0" d="M590.3,685.2h-32.5v-4.9h32.5V685.2z"/>
<path class="st0" d="M539.3,685.2h-32.5v-4.9h32.5V685.2z"/>
<path class="st0" d="M489,685.2h-32.5v-4.9H489V685.2z"/>
<path class="st0" d="M438,685.2h-32.5v-4.9H438V685.2z"/>
<path class="st0" d="M387.8,685.2h-32.5v-4.9h32.5V685.2z"/>
<path class="st0" d="M336.8,685.2h-32.5v-4.9h32.5V685.2z"/>
<path class="st0" d="M286.5,685.2h-32.5v-4.9h32.5V685.2z"/>
<path class="st0" d="M235.5,685.2h-32.5v-4.9h32.5V685.2z"/>
<path class="st0" d="M184.5,685.2h-32.5v-4.9h32.5V685.2z"/>
<path class="st0" d="M133.5,685.2h-32.5v-4.9h32.5V685.2z"/>
<path class="st0" d="M83.3,685.2H50.8v-4.9h32.5V685.2z"/>
<path class="st0" d="M32.3,685.2H-0.2v-4.9h32.5V685.2z"/>
<circle class="st3" cx="181.7" cy="34.4" r="32.4"/>
<circle class="st3" cx="218.3" cy="39.7" r="17.2"/>
<circle class="st3" cx="328.1" cy="28.1" r="23.8"/>
<circle class="st3" cx="400.7" cy="34.4" r="32.4"/>
<circle class="st3" cx="437.3" cy="39.7" r="17.2"/>
<circle class="st3" cx="488.1" cy="28.1" r="23.8"/>
<circle class="st3" cx="548.1" cy="28.1" r="23.8"/>
<circle class="st3" cx="620.7" cy="34.4" r="32.4"/>
<circle class="st3" cx="694.1" cy="28.1" r="23.8"/>
<g>
	<path class="st4" d="M395.8,168.3c0.2,0,0.3,0,0.6,0c1,0,1.8-0.2,2.4-0.8c0.4-0.4,0.7-1,0.7-1.7s-0.3-1.3-0.8-1.7
		c-0.5-0.4-1.2-0.6-2.2-0.6s-1.7,0.1-2.2,0.2v7.2h1.6L395.8,168.3L395.8,168.3z M395.8,164.9c0.1,0,0.3-0.1,0.7-0.1
		c0.8,0,1.3,0.4,1.3,1.1s-0.5,1.2-1.4,1.2c-0.2,0-0.4,0-0.6,0V164.9L395.8,164.9z"/>
	<path class="st4" d="M392.7,173.2h8.1c1,0,1.9-0.8,1.9-1.9v-8.1c0-1-0.8-1.9-1.9-1.9h-8.1c-1,0-1.9,0.8-1.9,1.9v8.1
		C390.9,172.4,391.7,173.2,392.7,173.2z M392.3,163.3c0-0.3,0.2-0.5,0.5-0.5h7.9c0.3,0,0.5,0.2,0.5,0.5v7.9c0,0.3-0.2,0.5-0.5,0.5
		h-7.9c-0.3,0-0.5-0.2-0.5-0.5C392.3,171.2,392.3,163.3,392.3,163.3z"/>
	<path class="st4" d="M398.4,183c-1.8,0-3.3,1.5-3.3,3.3s1.5,3.3,3.3,3.3s3.3-1.5,3.3-3.3C401.7,184.4,400.2,183,398.4,183z
		 M398.4,187.2c-0.5,0-1-0.4-1-1c0-0.5,0.4-1,1-1c0.5,0,1,0.4,1,1C399.4,186.8,399,187.2,398.4,187.2z"/>
	<path class="st4" d="M422.2,183.5l-0.5-4.3c-0.1-0.8-0.8-1.4-1.7-1.4l-1.2,0.1l-3.6-3.3c-0.3-0.3-0.8-0.5-1.3-0.5h-7.4
		c-1.7,0-3.3,0.6-4.5,1.6l-4.1,3.3l-5.5,1.4c-0.7,0.2-1.2,0.8-1.2,1.5v1.6c-0.2,0-0.4,0.2-0.4,0.4v2.1c0,0.3,0.2,0.5,0.5,0.5h3.1
		c0-0.1,0-0.3,0-0.4c0-2.3,1.8-4.1,4.1-4.1c2.3,0,4.1,1.8,4.1,4.1c0,0.1,0,0.3,0,0.4h8.6c0-0.1,0-0.3,0-0.4c0-2.3,1.8-4.1,4.1-4.1
		c2.3,0,4.1,1.8,4.1,4.1c0,0.1,0,0.3,0,0.4h2.9c0.3,0,0.5-0.2,0.5-0.5v-2C422.7,183.8,422.5,183.5,422.2,183.5L422.2,183.5z
		 M411.2,178.2l-10.3,0.5l2-1.6c1.1-0.9,2.4-1.3,3.8-1.3h4.5C411.2,175.8,411.2,178.2,411.2,178.2z M412.9,178.1v-2.3h0.7
		c0.2,0,0.5,0.1,0.6,0.2l2.1,1.9C416.3,178,412.9,178.1,412.9,178.1z"/>
	<path class="st4" d="M415.2,183c-1.8,0-3.3,1.5-3.3,3.3s1.5,3.3,3.3,3.3c1.8,0,3.3-1.5,3.3-3.3C418.4,184.4,417,183,415.2,183z
		 M415.2,187.2c-0.5,0-1-0.4-1-1c0-0.5,0.4-1,1-1c0.5,0,1,0.4,1,1C416.2,186.8,415.7,187.2,415.2,187.2z"/>
</g>
<g>
	<path class="st4" d="M977.4,575c-1.8,0-3.3,1.5-3.3,3.3s1.5,3.3,3.3,3.3c1.8,0,3.3-1.5,3.3-3.3C980.7,576.4,979.2,575,977.4,575z
		 M977.4,579.2c-0.5,0-1-0.4-1-1c0-0.5,0.4-1,1-1c0.5,0,1,0.4,1,1C978.4,578.8,978,579.2,977.4,579.2z"/>
	<path class="st4" d="M1001.2,575.5l-0.5-4.3c-0.1-0.8-0.8-1.4-1.7-1.4l-1.2,0.1l-3.6-3.3c-0.3-0.3-0.8-0.5-1.3-0.5h-7.4
		c-1.7,0-3.3,0.6-4.5,1.6l-4.1,3.3l-5.5,1.4c-0.7,0.2-1.2,0.8-1.2,1.5v1.6c-0.2,0-0.4,0.2-0.4,0.4v2.1c0,0.3,0.2,0.5,0.5,0.5h3.1
		c0-0.1,0-0.3,0-0.4c0-2.3,1.8-4.1,4.1-4.1c2.3,0,4.1,1.8,4.1,4.1c0,0.1,0,0.3,0,0.4h8.6c0-0.1,0-0.3,0-0.4c0-2.3,1.8-4.1,4.1-4.1
		c2.3,0,4.1,1.8,4.1,4.1c0,0.1,0,0.3,0,0.4h2.9c0.3,0,0.5-0.2,0.5-0.5v-2C1001.7,575.8,1001.5,575.5,1001.2,575.5L1001.2,575.5z
		 M990.2,570.2l-10.3,0.5l2-1.6c1.1-0.9,2.4-1.3,3.8-1.3h4.5C990.2,567.8,990.2,570.2,990.2,570.2z M991.9,570.1v-2.3h0.7
		c0.2,0,0.5,0.1,0.6,0.2l2.1,1.9C995.3,570,991.9,570.1,991.9,570.1z"/>
	<path class="st4" d="M994.2,575c-1.8,0-3.3,1.5-3.3,3.3s1.5,3.3,3.3,3.3s3.3-1.5,3.3-3.3C997.4,576.4,996,575,994.2,575z
		 M994.2,579.2c-0.5,0-1-0.4-1-1c0-0.5,0.4-1,1-1c0.5,0,1,0.4,1,1C995.2,578.8,994.7,579.2,994.2,579.2z"/>
</g>
<polygon class="st4" points="994,531.7 985.8,523.5 977.6,531.7 "/>
<rect x="983.4" y="531.7" class="st4" width="4.7" height="17.5"/>
<polygon class="st4" points="65.4,566.7 73.6,574.9 81.8,566.7 "/>
<rect x="71.2" y="549.2" transform="matrix(-1 -8.947255e-11 8.947255e-11 -1 147.2 1115.9646)" class="st4" width="4.7" height="17.5"/>
<g>
	<path class="st4" d="M65.2,530.2c-1.8,0-3.3,1.5-3.3,3.3s1.5,3.3,3.3,3.3s3.3-1.5,3.3-3.3C68.5,531.6,67,530.2,65.2,530.2z
		 M65.2,534.4c-0.5,0-1-0.4-1-1c0-0.5,0.4-1,1-1c0.5,0,1,0.4,1,1C66.2,534,65.8,534.4,65.2,534.4z"/>
	<path class="st4" d="M89,530.7l-0.5-4.3c-0.1-0.8-0.8-1.4-1.7-1.4l-1.2,0.1l-3.6-3.3c-0.3-0.3-0.8-0.5-1.3-0.5h-7.4
		c-1.7,0-3.3,0.6-4.5,1.6l-4.1,3.3l-5.5,1.4c-0.7,0.2-1.2,0.8-1.2,1.5v1.6c-0.2,0-0.4,0.2-0.4,0.4v2.1c0,0.3,0.2,0.5,0.5,0.5h3.1
		c0-0.1,0-0.3,0-0.4c0-2.3,1.8-4.1,4.1-4.1s4.1,1.8,4.1,4.1c0,0.1,0,0.3,0,0.4H78c0-0.1,0-0.3,0-0.4c0-2.3,1.8-4.1,4.1-4.1
		s4.1,1.8,4.1,4.1c0,0.1,0,0.3,0,0.4h2.9c0.3,0,0.5-0.2,0.5-0.5v-2C89.5,531,89.3,530.7,89,530.7L89,530.7z M78,525.4l-10.3,0.5
		l2-1.6c1.1-0.9,2.4-1.3,3.8-1.3H78C78,523,78,525.4,78,525.4z M79.7,525.3V523h0.7c0.2,0,0.5,0.1,0.6,0.2l2.1,1.9
		C83.1,525.2,79.7,525.3,79.7,525.3z"/>
	<path class="st4" d="M82,530.2c-1.8,0-3.3,1.5-3.3,3.3s1.5,3.3,3.3,3.3s3.3-1.5,3.3-3.3C85.2,531.6,83.8,530.2,82,530.2z M82,534.4
		c-0.5,0-1-0.4-1-1c0-0.5,0.4-1,1-1c0.5,0,1,0.4,1,1C83,534,82.5,534.4,82,534.4z"/>
</g>
</svg>
